<?xml version="1.0" encoding="UTF-8"?>
<svg width="13px" height="16px" viewBox="0 0 13 16" version="1.1" xmlns="http://www.w3.org/2000/svg" xmlns:xlink="http://www.w3.org/1999/xlink">
    <title>语音 (1)</title>
    <g id="紫色" stroke="none" stroke-width="1" fill="none" fill-rule="evenodd">
        <g id="上传与录音界面提示展示备份" transform="translate(-640.000000, -2345.000000)" fill="#FFFFFF" fill-rule="nonzero">
            <g id="编组-2" transform="translate(448.000000, 2338.000000)">
                <g id="语音-(1)" transform="translate(192.000000, 7.000000)">
                    <path d="M6.43039737,1.45525856 C5.2167305,1.45525856 4.2328591,2.43204394 4.2328591,3.63696977 L4.2328591,6.54591806 C4.2328591,7.7508439 5.2167305,8.72762928 6.43039737,8.72762928 C7.64406424,8.72762928 8.62793564,7.7508439 8.62793564,6.54591806 L8.62793564,3.63696977 C8.62793564,2.43204394 7.64406424,1.45525856 6.43039737,1.45525856 Z M9.02056247,1.06545949 C9.70738488,1.74751507 10.0931422,2.67252465 10.0929612,3.63696977 L10.0929612,6.54591806 C10.0929612,8.55412776 8.45317546,10.1821034 6.43039737,10.1821034 C4.40761927,10.1821034 2.76783353,8.55412776 2.76783353,6.54591806 L2.76783353,3.63696977 C2.76755733,2.16605943 3.6599156,0.83986264 5.02870245,0.276932513 C6.3974893,-0.285997614 7.97306467,0.0252316587 9.02056247,1.06545949 Z M0.584945576,7.23970223 L0.605455939,7.23679328 C1.0119819,7.17674738 1.39482789,7.44280945 1.47714611,7.84258175 C1.48886632,7.90076071 1.50058652,7.95094007 1.51303924,7.99093811 C2.154632,10.1321943 4.12691261,11.6083632 6.37698922,11.6313996 C8.62706582,11.6544361 10.6295902,10.2189616 11.3155249,8.09129683 C11.3323727,8.03748129 11.3477555,7.97275718 11.3602082,7.89857902 C11.4254018,7.51605231 11.7586952,7.23679328 12.1491245,7.23679328 L12.2238408,7.23679328 C12.4206238,7.23690141 12.6066297,7.32604141 12.7291238,7.47894117 C12.851618,7.63184092 12.897245,7.83182994 12.8530692,8.02220931 C12.2215784,10.7263543 9.94147415,12.7414631 7.16291013,13.0510537 L7.16291013,15.2727629 C7.16291013,15.6744049 6.834953,16 6.43039737,16 C6.02584174,16 5.69788461,15.6744049 5.69788461,15.2727629 L5.69788461,13.0510537 C2.93768348,12.7438417 0.66703315,10.7529775 0.0187132215,8.07166143 C-0.0258688663,7.88599829 0.0100245265,7.69028274 0.117660058,7.53213499 C0.22529559,7.37398725 0.394805432,7.267906 0.584945576,7.23970223 L0.584945576,7.23970223 Z" id="形状"></path>
                </g>
            </g>
        </g>
    </g>
</svg>